<svg width="24" height="24" viewBox="0 0 24 24" fill="none" xmlns="http://www.w3.org/2000/svg">
<mask id="path-1-inside-1_2_1405" fill="white">
<path d="M2.33211 13.9866C2.79469 15.5642 3.59139 17.0744 4.79141 18.2144C5.36855 18.827 6.05427 19.33 6.77977 19.7513L6.82989 19.7577C9.26214 21.173 12.3427 21.3791 14.9659 20.3755C15.339 20.2312 15.722 20.0893 16.047 19.8489L16.0971 19.8434C16.718 19.5054 17.3107 19.1052 17.8226 18.6149C18.315 18.2231 18.7398 17.7484 19.0942 17.2295C19.4923 16.8377 19.7206 16.306 19.9971 15.8261C20.2377 15.2665 20.5491 14.7132 20.6148 14.099C20.9362 13.0838 21.0408 12.0033 20.9863 10.9415C20.8451 9.82224 20.6613 8.68509 20.1709 7.65914V7.60533C19.4056 5.89581 18.1213 4.43621 16.539 3.44215L16.4889 3.43577C14.9078 2.38352 12.9652 1.95783 11.0838 2.00327C9.61256 2.09574 8.11423 2.40504 6.83983 3.17709L6.78812 3.17988C6.0141 3.61035 5.31604 4.16438 4.67526 4.77341C3.90124 5.58253 3.1833 6.49528 2.80941 7.56149C1.88941 9.52848 1.78281 11.8371 2.34205 13.9228L2.33211 13.9866ZM11.1101 20.0052C10.6046 19.7334 10.1121 19.4304 9.68694 19.041C8.8795 18.1845 8.22361 17.1773 7.82626 16.0644C8.90575 15.7974 10.0099 15.6403 11.1196 15.5857C11.1053 17.0593 11.1224 18.5316 11.1097 20.0052H11.1101ZM11.1188 14.9588C9.93116 14.956 8.75262 15.1684 7.59914 15.4351C7.17832 14.2557 6.97904 13.0121 6.90387 11.7661C8.28844 11.7761 9.67302 11.7669 11.0572 11.7725L11.1216 11.8147C11.1101 12.863 11.1125 13.9117 11.1188 14.9592V14.9588ZM11.1145 7.33868C9.9769 7.28487 8.8441 7.12863 7.73716 6.85879C8.0836 6.09829 8.41652 5.31827 8.95706 4.67058C9.50994 3.91805 10.2529 3.29826 11.1077 2.91801C11.1248 4.39077 11.1113 5.86512 11.1149 7.33828L11.1145 7.33868ZM11.1188 7.96445C11.1081 9.00196 11.1181 10.0399 11.1125 11.0774C9.71637 11.065 8.31867 11.0586 6.92256 11.081C6.97706 9.86847 7.1103 8.64802 7.53271 7.5025C8.70887 7.76795 9.90968 7.98757 11.1188 7.96445ZM4.20552 16.4287C4.11881 16.2976 4.02733 16.1696 3.94778 16.0341C3.67929 15.5096 3.38854 14.9922 3.20398 14.4286C2.87186 13.5765 2.76884 12.6665 2.66065 11.7661C3.86783 11.7677 5.0762 11.7713 6.28417 11.7653C6.29571 12.0882 6.30645 12.411 6.33986 12.7331L6.34622 12.8012C6.45719 13.7534 6.64692 14.6981 6.97069 15.6021C6.91779 15.6156 6.81119 15.6423 6.7575 15.6559C5.89557 15.8755 5.05273 16.1609 4.20512 16.4287H4.20552ZM4.59372 16.9883C5.16927 16.8269 5.73726 16.6396 6.31002 16.4698C6.59283 16.3857 6.89154 16.3442 7.15485 16.2015C7.65443 17.4551 8.32384 18.6703 9.31265 19.6038C9.54017 19.829 9.83013 19.9841 10.0429 20.2252C9.56165 20.1076 9.07798 20.0012 8.60466 19.8557C7.02677 19.3061 5.65055 18.2746 4.59372 16.9879V16.9883ZM15.1326 16.3255C14.88 16.8743 14.6036 17.4124 14.2798 17.9226C13.6489 18.7935 12.8666 19.6142 11.8455 20.0112C11.8455 18.536 11.8439 17.0605 11.8491 15.5853C12.9811 15.6579 14.1159 15.7699 15.2177 16.0561C15.1918 16.1465 15.1632 16.2362 15.1326 16.3251V16.3255ZM15.4002 15.4518C15.0136 15.2832 14.5876 15.2537 14.1776 15.1808C13.4465 15.0911 12.719 14.9576 11.9796 14.9476C11.9358 14.9448 11.8479 14.9396 11.8042 14.9368C11.8809 13.883 11.8237 12.8204 11.8328 11.7637C13.254 11.7673 14.6759 11.7717 16.0971 11.7621C16.0355 12.92 15.8752 14.0767 15.5315 15.1863C15.4893 15.2752 15.4456 15.3637 15.3999 15.4518H15.4002ZM16.1019 11.0694C14.6799 11.0746 13.2576 11.0674 11.8356 11.0738C11.8428 10.0407 11.8499 9.00674 11.8328 7.97282C13.0428 7.92101 14.2571 7.76636 15.4269 7.44351C15.5824 7.95927 15.7284 8.47743 15.8342 9.00594C15.9782 9.68752 15.9651 10.389 16.1019 11.0694ZM11.8328 7.3315C11.8312 5.86791 11.8678 4.40353 11.8205 2.94153C12.3789 3.06549 12.8129 3.46965 13.2397 3.82758C14.1123 4.67775 14.7682 5.73319 15.228 6.85879C14.106 7.07123 12.9791 7.30799 11.8324 7.3315H11.8328ZM16.2757 18.9745C15.6636 19.3188 15.0478 19.6724 14.374 19.882C13.8872 20.0478 13.3769 20.1224 12.8857 20.2695C13.1605 20.0347 13.4684 19.8406 13.7297 19.5899C14.7062 18.658 15.3987 17.4599 15.8632 16.1999C16.7423 16.4331 17.6229 16.6707 18.4792 16.9768C17.8285 17.7285 17.1046 18.4216 16.2761 18.9749L16.2757 18.9745ZM18.9164 16.406C17.9757 16.0887 17.0207 15.8197 16.0661 15.5479C16.5422 14.3453 16.6253 13.0352 16.7311 11.7589C17.6225 11.7769 18.5131 11.7625 19.4044 11.7697C19.6988 11.7669 19.9979 11.7849 20.2886 11.7267L20.293 11.8255C20.291 12.8327 20.0774 13.8379 19.7338 14.783C19.5138 15.3498 19.194 15.8679 18.9168 16.406H18.9164ZM19.1992 7.15214C19.8435 8.36104 20.1928 9.70545 20.3125 11.0658C19.1248 11.0937 17.9327 11.0279 16.749 11.1009C16.7295 10.951 16.7112 10.8024 16.6917 10.6545C16.6102 9.75328 16.535 8.84013 16.257 7.97282C16.1962 7.74045 16.1273 7.51007 16.0752 7.27491C16.9746 7.0246 17.8671 6.75037 18.7449 6.4327C18.8997 6.67026 19.0616 6.90343 19.1996 7.15214H19.1992ZM18.3428 5.86154C17.5187 6.14413 16.6906 6.41477 15.8505 6.64794C15.2507 5.17 14.3526 3.77895 13.067 2.8104C14.2476 3.03918 15.401 3.46407 16.3827 4.17155C17.1229 4.62713 17.7259 5.25769 18.3428 5.86114V5.86154ZM8.04104 3.33971C8.58875 3.12009 9.15435 2.94352 9.73586 2.83949L9.85758 2.83431C8.56448 3.80007 7.61227 5.1963 7.09121 6.71928C6.6859 6.59931 6.27701 6.4897 5.87051 6.37132C5.42503 6.20471 4.96642 6.07199 4.51378 5.9285C4.81527 5.57256 5.14938 5.24613 5.49742 4.93643C6.23207 4.24489 7.1278 3.75464 8.04104 3.34011V3.33971ZM4.07307 6.56025C4.10886 6.54749 4.18046 6.52238 4.21546 6.51003C5.08614 6.83288 5.97512 7.10352 6.87165 7.34147C6.4914 8.54518 6.29372 9.81028 6.32037 11.0738C5.09967 11.065 3.87896 11.0722 2.65747 11.071C2.73065 10.2774 2.84362 9.48823 3.06357 8.72056C3.31972 7.96724 3.64628 7.23266 4.07307 6.56025Z"/>
</mask>
<path d="M2.33211 13.9866C2.79469 15.5642 3.59139 17.0744 4.79141 18.2144C5.36855 18.827 6.05427 19.33 6.77977 19.7513L6.82989 19.7577C9.26214 21.173 12.3427 21.3791 14.9659 20.3755C15.339 20.2312 15.722 20.0893 16.047 19.8489L16.0971 19.8434C16.718 19.5054 17.3107 19.1052 17.8226 18.6149C18.315 18.2231 18.7398 17.7484 19.0942 17.2295C19.4923 16.8377 19.7206 16.306 19.9971 15.8261C20.2377 15.2665 20.5491 14.7132 20.6148 14.099C20.9362 13.0838 21.0408 12.0033 20.9863 10.9415C20.8451 9.82224 20.6613 8.68509 20.1709 7.65914V7.60533C19.4056 5.89581 18.1213 4.43621 16.539 3.44215L16.4889 3.43577C14.9078 2.38352 12.9652 1.95783 11.0838 2.00327C9.61256 2.09574 8.11423 2.40504 6.83983 3.17709L6.78812 3.17988C6.0141 3.61035 5.31604 4.16438 4.67526 4.77341C3.90124 5.58253 3.1833 6.49528 2.80941 7.56149C1.88941 9.52848 1.78281 11.8371 2.34205 13.9228L2.33211 13.9866ZM11.1101 20.0052C10.6046 19.7334 10.1121 19.4304 9.68694 19.041C8.8795 18.1845 8.22361 17.1773 7.82626 16.0644C8.90575 15.7974 10.0099 15.6403 11.1196 15.5857C11.1053 17.0593 11.1224 18.5316 11.1097 20.0052H11.1101ZM11.1188 14.9588C9.93116 14.956 8.75262 15.1684 7.59914 15.4351C7.17832 14.2557 6.97904 13.0121 6.90387 11.7661C8.28844 11.7761 9.67302 11.7669 11.0572 11.7725L11.1216 11.8147C11.1101 12.863 11.1125 13.9117 11.1188 14.9592V14.9588ZM11.1145 7.33868C9.9769 7.28487 8.8441 7.12863 7.73716 6.85879C8.0836 6.09829 8.41652 5.31827 8.95706 4.67058C9.50994 3.91805 10.2529 3.29826 11.1077 2.91801C11.1248 4.39077 11.1113 5.86512 11.1149 7.33828L11.1145 7.33868ZM11.1188 7.96445C11.1081 9.00196 11.1181 10.0399 11.1125 11.0774C9.71637 11.065 8.31867 11.0586 6.92256 11.081C6.97706 9.86847 7.1103 8.64802 7.53271 7.5025C8.70887 7.76795 9.90968 7.98757 11.1188 7.96445ZM4.20552 16.4287C4.11881 16.2976 4.02733 16.1696 3.94778 16.0341C3.67929 15.5096 3.38854 14.9922 3.20398 14.4286C2.87186 13.5765 2.76884 12.6665 2.66065 11.7661C3.86783 11.7677 5.0762 11.7713 6.28417 11.7653C6.29571 12.0882 6.30645 12.411 6.33986 12.7331L6.34622 12.8012C6.45719 13.7534 6.64692 14.6981 6.97069 15.6021C6.91779 15.6156 6.81119 15.6423 6.7575 15.6559C5.89557 15.8755 5.05273 16.1609 4.20512 16.4287H4.20552ZM4.59372 16.9883C5.16927 16.8269 5.73726 16.6396 6.31002 16.4698C6.59283 16.3857 6.89154 16.3442 7.15485 16.2015C7.65443 17.4551 8.32384 18.6703 9.31265 19.6038C9.54017 19.829 9.83013 19.9841 10.0429 20.2252C9.56165 20.1076 9.07798 20.0012 8.60466 19.8557C7.02677 19.3061 5.65055 18.2746 4.59372 16.9879V16.9883ZM15.1326 16.3255C14.88 16.8743 14.6036 17.4124 14.2798 17.9226C13.6489 18.7935 12.8666 19.6142 11.8455 20.0112C11.8455 18.536 11.8439 17.0605 11.8491 15.5853C12.9811 15.6579 14.1159 15.7699 15.2177 16.0561C15.1918 16.1465 15.1632 16.2362 15.1326 16.3251V16.3255ZM15.4002 15.4518C15.0136 15.2832 14.5876 15.2537 14.1776 15.1808C13.4465 15.0911 12.719 14.9576 11.9796 14.9476C11.9358 14.9448 11.8479 14.9396 11.8042 14.9368C11.8809 13.883 11.8237 12.8204 11.8328 11.7637C13.254 11.7673 14.6759 11.7717 16.0971 11.7621C16.0355 12.92 15.8752 14.0767 15.5315 15.1863C15.4893 15.2752 15.4456 15.3637 15.3999 15.4518H15.4002ZM16.1019 11.0694C14.6799 11.0746 13.2576 11.0674 11.8356 11.0738C11.8428 10.0407 11.8499 9.00674 11.8328 7.97282C13.0428 7.92101 14.2571 7.76636 15.4269 7.44351C15.5824 7.95927 15.7284 8.47743 15.8342 9.00594C15.9782 9.68752 15.9651 10.389 16.1019 11.0694ZM11.8328 7.3315C11.8312 5.86791 11.8678 4.40353 11.8205 2.94153C12.3789 3.06549 12.8129 3.46965 13.2397 3.82758C14.1123 4.67775 14.7682 5.73319 15.228 6.85879C14.106 7.07123 12.9791 7.30799 11.8324 7.3315H11.8328ZM16.2757 18.9745C15.6636 19.3188 15.0478 19.6724 14.374 19.882C13.8872 20.0478 13.3769 20.1224 12.8857 20.2695C13.1605 20.0347 13.4684 19.8406 13.7297 19.5899C14.7062 18.658 15.3987 17.4599 15.8632 16.1999C16.7423 16.4331 17.6229 16.6707 18.4792 16.9768C17.8285 17.7285 17.1046 18.4216 16.2761 18.9749L16.2757 18.9745ZM18.9164 16.406C17.9757 16.0887 17.0207 15.8197 16.0661 15.5479C16.5422 14.3453 16.6253 13.0352 16.7311 11.7589C17.6225 11.7769 18.5131 11.7625 19.4044 11.7697C19.6988 11.7669 19.9979 11.7849 20.2886 11.7267L20.293 11.8255C20.291 12.8327 20.0774 13.8379 19.7338 14.783C19.5138 15.3498 19.194 15.8679 18.9168 16.406H18.9164ZM19.1992 7.15214C19.8435 8.36104 20.1928 9.70545 20.3125 11.0658C19.1248 11.0937 17.9327 11.0279 16.749 11.1009C16.7295 10.951 16.7112 10.8024 16.6917 10.6545C16.6102 9.75328 16.535 8.84013 16.257 7.97282C16.1962 7.74045 16.1273 7.51007 16.0752 7.27491C16.9746 7.0246 17.8671 6.75037 18.7449 6.4327C18.8997 6.67026 19.0616 6.90343 19.1996 7.15214H19.1992ZM18.3428 5.86154C17.5187 6.14413 16.6906 6.41477 15.8505 6.64794C15.2507 5.17 14.3526 3.77895 13.067 2.8104C14.2476 3.03918 15.401 3.46407 16.3827 4.17155C17.1229 4.62713 17.7259 5.25769 18.3428 5.86114V5.86154ZM8.04104 3.33971C8.58875 3.12009 9.15435 2.94352 9.73586 2.83949L9.85758 2.83431C8.56448 3.80007 7.61227 5.1963 7.09121 6.71928C6.6859 6.59931 6.27701 6.4897 5.87051 6.37132C5.42503 6.20471 4.96642 6.07199 4.51378 5.9285C4.81527 5.57256 5.14938 5.24613 5.49742 4.93643C6.23207 4.24489 7.1278 3.75464 8.04104 3.34011V3.33971ZM4.07307 6.56025C4.10886 6.54749 4.18046 6.52238 4.21546 6.51003C5.08614 6.83288 5.97512 7.10352 6.87165 7.34147C6.4914 8.54518 6.29372 9.81028 6.32037 11.0738C5.09967 11.065 3.87896 11.0722 2.65747 11.071C2.73065 10.2774 2.84362 9.48823 3.06357 8.72056C3.31972 7.96724 3.64628 7.23266 4.07307 6.56025Z" fill="#F7F7F7" stroke="#F7F7F7" stroke-width="6" mask="url(#path-1-inside-1_2_1405)"/>
</svg>
